<svg xmlns="http://www.w3.org/2000/svg" viewBox="0 0 512 512">
  <defs>
    <linearGradient id="g" x1="0" y1="0" x2="1" y2="1">
      <stop offset="0%" stop-color="#b7e3ff"/>
      <stop offset="100%" stop-color="#ffe08a"/>
    </linearGradient>
  </defs>
  <style>
    .steam path {
      stroke-dasharray: 10 22;
      stroke-dashoffset: 0;
      animation: dash 4s linear infinite, float 3.8s ease-in-out infinite alternate;
      transform-box: fill-box;
      transform-origin: center;
    }
    .steam path:nth-child(2) { animation-duration: 4.6s, 4.2s; animation-delay: .15s, .1s; }
    .steam path:nth-child(3) { animation-duration: 5.2s, 3.6s; animation-delay: .3s, .2s; }
    .steam path:nth-child(4) { animation-duration: 4.4s, 3.2s; animation-delay: .45s, .3s; }
    .steam path:nth-child(5) { animation-duration: 5.0s, 4.0s; animation-delay: .6s, .4s; }
    .steam path:nth-child(6) { animation-duration: 4.2s, 3.4s; animation-delay: .75s, .5s; }
    .steam path:nth-child(7) { animation-duration: 4.8s, 3.9s; animation-delay: .9s, .6s; }
    @keyframes dash { to { stroke-dashoffset: -64; } }
    @keyframes float { from { transform: translateY(4px); opacity: .75; } to { transform: translateY(-6px); opacity: 1; } }
  </style>
  <!-- Cup shape -->
  <g fill="none" stroke="url(#g)" stroke-width="16" stroke-linecap="round" stroke-linejoin="round">
    <path d="M128 184h208c0 72-32 140-104 156-72-16-104-84-104-156Z"/>
    <path d="M336 208h40c28 0 40 16 40 36s-12 36-40 36h-20"/>
    <path d="M120 184h224" opacity="0.4"/>
  </g>
  <!-- Spiral steam inside cup -->
  <g class="steam" fill="none" stroke="url(#g)" stroke-width="10" stroke-linecap="round">
    <path d="M210 170c0-20 40-24 40-44s-24-24-24-40" opacity="0.8"/>
    <path d="M250 170c0-18 32-22 32-38s-18-22-18-36" opacity="0.65"/>
    <path d="M286 170c0-16 24-20 24-32s-12-20-12-30" opacity="0.5"/>
    <path d="M194 172c0-18 34-22 34-40s-20-22-20-36" opacity="0.55"/>
    <path d="M306 172c0-14 22-18 22-28s-10-18-10-26" opacity="0.45"/>
    <path d="M232 172c0-16 28-20 28-34s-14-20-14-32" opacity="0.6"/>
    <path d="M270 172c0-15 26-19 26-30s-12-19-12-28" opacity="0.5"/>
  </g>
</svg>

